<svg width="1500" height="69" viewBox="0 0 1500 69" fill="none" xmlns="http://www.w3.org/2000/svg">
<path d="M0 27.8106C1.14385 27.0043 2.81275 25.9167 3.65657 25.7292C5.02544 25.4479 7.4069 23.4602 7.4069 23.4602L12.2823 20.4975L14.9076 18.9036L20.1768 15.7345C20.1768 15.7345 26.5336 11.8342 29.5713 10.0528C32.6091 8.27139 39.9222 4.25854 39.9222 4.25854C39.9222 4.25854 42.4725 1.68957 44.7977 1.29578C47.1229 0.901993 50.1419 1.65206 51.492 1.35204C52.8421 1.05201 57.7363 0.658226 57.7363 0.658226C57.7363 0.658226 57.8863 2.60839 59.3302 3.28345C60.7553 3.95851 63.7931 7.2588 66.7183 7.01503C69.6624 6.77126 68.5372 10.0153 68.5372 10.0153C68.5372 10.0153 71.5375 8.19638 73.4127 7.05253L76.2817 8.40265L81.9072 4.98985L85.6575 2.7209C85.6575 2.7209 89.5016 3.97726 93.4769 2.08334C97.4523 0.18943 99.3837 11.853 99.3837 11.853C99.3837 11.853 105.722 17.2534 107.541 17.6847C109.341 18.1348 123.123 15.4345 131.393 15.5658C139.681 15.6783 142.606 12.8843 142.606 12.8843C142.606 12.8843 154.814 17.7972 156.932 17.0472L173.64 16.6909L188.304 12.9405L192.617 20.0849L200.68 19.8224L226.726 17.9097L236.458 23.8165L246.997 22.5789L253.747 18.491L256.747 16.6721L258.998 15.3033L263.367 15.7345L271.674 20.9663L276.174 18.2473L279.718 18.1535L287.688 16.9159L294.251 22.6914L305.483 27.6981C305.483 27.6981 308.033 25.1291 309.608 25.2041C311.184 25.2791 316.303 25.2604 316.303 25.2604L317.672 27.5106L325.06 31.2421L332.448 32.4235L336.817 32.8548L344.88 32.5923L348.518 38.5928C348.518 38.5928 353.281 41.368 356.581 40.8992C359.9 40.4305 357.95 43.1494 357.95 43.1494L364.963 44.5558L367.007 47.9311L368.151 49.8063L386.19 41.4618L387.784 44.087L400.291 45.2496L418.068 48.3436C418.068 48.3436 423.881 52.019 425.231 51.7002C426.581 51.4002 434.438 55.8818 436.013 55.9568C437.588 56.0318 444.601 57.4382 444.601 57.4382L453.715 60.6447C453.715 60.6447 464.234 54.2879 467.985 52.0002C471.735 49.7313 476.779 48.7374 478.129 48.4187C479.479 48.1186 486.568 47.9311 489.868 47.4623C493.187 46.9935 498.944 45.5121 498.944 45.5121C498.944 45.5121 506.482 40.993 509.107 39.3991C511.732 37.8052 517.527 33.7924 521.277 34.0737C525.046 34.3549 531.497 31.4672 533.465 31.3172C535.416 31.1671 541.004 31.8985 545.129 31.9547C549.273 32.011 550.173 30.9609 550.173 30.9609L561.405 33.3986C561.405 33.3986 570.5 31.4859 573.519 32.2172C576.538 32.9673 575.394 31.0734 575.394 31.0734C575.394 31.0734 582.238 30.5108 582.932 31.6547C583.607 32.7798 587.226 33.6799 587.226 33.6799L590.995 36.5301L594.746 34.2612L600.746 30.6233L609.053 35.8551C609.053 35.8551 613.347 37.8802 614.473 37.1864C615.598 36.5114 617.342 38.5365 617.342 38.5365L623.811 38.2178C623.811 38.2178 630.899 40.5992 632.249 40.2992C633.599 39.9992 637.368 40.2804 637.368 40.2804L646.407 39.9429C646.407 39.9429 652.782 36.0801 654.676 34.9362C656.551 33.7924 658.595 37.1864 658.595 37.1864C658.595 37.1864 664.239 38.8928 666.358 38.9866C668.458 39.0803 668.909 38.124 668.909 38.124C668.909 38.124 672.359 34.5049 674.159 34.9362C675.959 35.3863 679.409 31.7484 679.409 31.7484L681.66 30.3796C681.66 30.3796 684.529 31.7297 686.329 32.161C688.129 32.611 693.717 33.3423 696.961 34.4487C700.205 35.5738 701.461 31.7297 701.461 31.7297C701.461 31.7297 713.8 28.3731 716.125 27.9794C718.45 27.5856 725.07 26.6667 725.07 26.6667L729.439 27.098L733.433 27.7543L736.433 25.9354L740.184 23.6665L741.684 22.7664C741.684 22.7664 741.684 22.7664 742.809 22.0914C743.934 21.4163 751.078 19.6536 753.403 19.2599C755.729 18.8661 753.403 19.2599 756.629 17.816C759.854 16.3721 767.917 16.1096 770.842 15.8846C773.786 15.6408 772.436 18.5098 775.737 18.041C779.056 17.5722 781.418 24.8666 783.669 26.0667C785.938 27.2668 791.076 32.3672 792.201 31.6734C793.326 30.9984 802.945 31.5234 802.945 31.5234L806.714 29.2357L812.002 30.5296L818.134 26.8168C818.134 26.8168 827.96 26.0292 831.842 28.1856C835.723 30.3421 836.079 25.6167 836.079 25.6167L844.574 23.6852L847.874 21.6788C847.874 21.6788 853.162 19.7661 856.369 19.7474C859.575 19.7286 861.675 21.0413 861.675 21.0413C861.675 21.0413 867.826 23.7602 869.251 22.8977C870.657 22.0351 878.608 22.3914 878.608 22.3914C878.608 22.3914 883.69 18.0222 886.146 17.8347C888.603 17.6285 893.685 13.2781 895.11 12.4155C896.516 11.5529 903.248 15.2282 903.248 15.2282C903.248 15.2282 908.442 12.0967 909.848 11.2341C911.255 10.3716 916.449 7.24005 917.855 6.37747C919.262 5.5149 932.05 10.6716 932.05 10.6716L941.014 8.45891L949.602 7.7651L957.159 6.41498L963.591 6.39622C963.591 6.39622 968.972 5.72116 972.179 5.70241L977.954 6.715L986.58 12.453L993.574 13.3718L996.406 11.6654L998.412 14.9657L1003.72 16.2596L1006.57 20.9663C1006.57 20.9663 1006.57 20.9663 1009.87 18.9598C1013.17 16.9534 1014.15 26.0292 1014.15 26.0292L1015.85 28.8607C1015.85 28.8607 1022.1 32.7985 1026.54 29.4795C1030.97 26.1605 1031.94 32.011 1031.94 32.011L1034.3 30.5858C1034.3 30.5858 1041.6 35.18 1045.29 34.8987C1045.29 34.8987 1049.74 34.7862 1051.72 34.88C1053.71 34.9737 1058.25 36.0801 1058.25 36.0801C1058.25 36.0801 1064.85 32.086 1066.26 31.2234C1067.66 30.3608 1073.33 26.948 1073.33 26.948L1088.42 30.5858C1088.42 30.5858 1090.45 27.5293 1094.12 27.2481C1097.8 26.948 1099.48 23.3477 1101.19 22.9727C1102.9 22.5789 1107.17 19.3536 1107.17 19.3536L1110.62 17.2722L1118.16 12.7155C1118.16 12.7155 1118.16 12.7155 1121.29 14.6845C1124.42 16.6534 1125.06 12.3968 1125.06 12.3968L1129.88 13.9906L1136.41 15.1907C1136.41 15.1907 1141.6 12.0592 1143.48 10.9154C1145.37 9.77152 1148.18 8.06512 1148.18 8.06512L1156.71 12.5655L1159.08 11.1404L1163.78 8.29014L1171.9 7.87761L1174.75 12.5843C1174.75 12.5843 1186.59 18.3035 1190.75 17.7222L1195.94 14.5907L1203.03 13.5218L1204.74 16.3533C1204.74 16.3533 1219.89 26.498 1222.93 27.2481C1225.96 27.9981 1227.16 24.6791 1227.16 24.6791L1233.88 25.1291L1236.71 23.4227L1241.06 25.2979L1246.72 21.8663L1250.72 28.4669L1254.48 26.1792L1257.79 24.1728L1259.21 26.5355L1265.17 30.0045L1272.71 25.4479L1276.78 26.8543C1276.78 26.8543 1283.87 28.992 1286.16 29.5545C1288.43 30.1171 1292.21 31.0359 1292.21 31.0359C1292.21 31.0359 1298.06 30.0608 1304.21 29.5733C1310.35 29.0857 1319.33 26.873 1319.33 26.873L1324.63 28.1669C1324.63 28.1669 1332.51 36.9239 1334.97 36.7176C1337.42 36.5114 1344.61 36.6801 1344.61 36.6801C1344.61 36.6801 1351.39 31.936 1353.1 31.5422C1354.81 31.1484 1361.52 31.5984 1361.52 31.5984L1367.84 30.3421C1367.84 30.3421 1367.84 30.3421 1369.54 29.9483C1371.25 29.5545 1374.95 32.4798 1374.95 32.4798L1378.71 30.1921L1381.08 28.7669L1386.67 30.5483C1386.67 30.5483 1386.67 30.5483 1390.64 33.9424C1394.62 37.3364 1393.94 31.936 1393.94 31.936L1401.14 38.5178L1404.44 36.5114L1406.45 39.8117L1410.22 37.524L1414.46 34.955L1425.29 28.3919C1425.29 28.3919 1425.97 33.7736 1429.29 34.9925C1432.61 36.2113 1429.29 34.9925 1430.69 34.1299C1432.1 33.2673 1437.63 33.8674 1437.63 33.8674L1449.6 32.3485C1449.6 32.3485 1449.6 32.3485 1450.44 30.5483C1451.28 28.7482 1452.13 26.948 1452.97 25.1479C1453.81 23.3477 1456.74 22.8602 1456.74 22.8602C1456.74 22.8602 1468.97 30.2858 1470.28 31.4109C1471.61 32.536 1477.55 32.7985 1477.55 32.7985L1483.22 29.367L1487.85 31.7109L1492.09 29.142L1495.86 26.8543L1500 28.8044V68.8954H0V27.8106Z" fill="white"/>
</svg>
