<svg width="21" height="16" viewBox="0 0 21 16" fill="none" xmlns="http://www.w3.org/2000/svg">
<path fill-rule="evenodd" clip-rule="evenodd" d="M5.59458 2.37827C3.03309 3.13406 0.867 3.8032 0.781044 3.86528C0.695088 3.92735 0.598255 4.05263 0.56581 4.14365C0.489606 4.3577 0.577312 4.60606 0.781044 4.75284C0.867 4.81479 1.83002 5.12711 2.92107 5.44693L4.90481 6.02831L4.90587 7.32546C4.90644 8.03887 4.88762 8.62262 4.86399 8.62262C4.84036 8.62262 4.43983 8.50747 3.97392 8.36681C3.38548 8.18909 3.06191 8.12151 2.91425 8.14545C2.18853 8.26323 1.52089 9.33502 1.5072 10.4043C1.49982 10.9834 1.58641 11.2781 1.8404 11.5378C2.03244 11.7343 1.62691 11.6041 10.1893 14.2178C13.6029 15.2597 13.5656 15.249 13.7991 15.249C14.0419 15.249 14.4306 15.0131 14.6746 14.7177C15.1815 14.1039 15.4228 13.0071 15.2084 12.2914C15.0586 11.7912 14.8953 11.699 13.3124 11.2217C12.523 10.9836 11.8408 10.7708 11.7963 10.7488C11.7519 10.7268 11.9665 10.6754 12.2734 10.6346C13.3991 10.4846 14.8089 10.041 15.5364 9.60758C15.7859 9.45892 15.916 9.32883 16.0187 9.1251C16.1521 8.86054 16.1594 8.77371 16.1597 7.43723L16.1599 6.02831L17.0818 5.762C17.5887 5.61553 18.1371 5.45512 18.3005 5.40555L18.5974 5.3154V6.343V7.37066L18.3932 7.45599C18.0201 7.61184 17.6604 8.15389 17.6604 8.5601C17.6604 8.77015 17.799 9.13004 17.9481 9.30733L18.1067 9.49574L17.9422 9.90671C17.8238 10.2028 17.7586 10.5265 17.7091 11.0651C17.627 11.9589 17.6817 12.2289 17.9894 12.4484C18.1705 12.5775 18.2613 12.5922 18.8787 12.5922C19.4932 12.5922 19.5875 12.5772 19.765 12.4505C20.049 12.248 20.1213 11.9707 20.0686 11.2872C20.0091 10.515 19.9369 10.1463 19.7771 9.79868L19.6424 9.50562L19.8052 9.31226C19.9746 9.11091 20.0978 8.7659 20.096 8.49759C20.0935 8.12201 19.7019 7.58014 19.3319 7.44036L19.16 7.37547V6.27855C19.16 5.02665 19.0938 5.16018 19.8138 4.95926C20.4915 4.77022 20.7384 4.31319 20.3634 3.94173C20.232 3.81151 19.9557 3.70218 19.1913 3.47757C17.2044 2.89394 17.3671 2.92889 17.2138 3.0531C17.1115 3.13587 17.0882 3.20257 17.1188 3.32466C17.1646 3.50726 17.1575 3.50445 18.7537 3.96792C19.3038 4.12765 19.7743 4.27755 19.7993 4.301C19.8242 4.3245 19.6132 4.40752 19.3304 4.48554L18.8162 4.62732L15.0296 4.312C12.9469 4.13852 11.1029 3.99662 10.9318 3.99662C10.6094 3.99662 10.4706 4.0727 10.4706 4.24948C10.4706 4.49616 10.6511 4.54436 11.971 4.65045C12.6758 4.70708 14.0683 4.82205 15.0654 4.90594C16.0625 4.98977 16.9486 5.05947 17.0346 5.06078C17.1541 5.0626 17.1688 5.07598 17.0971 5.1178C17.0455 5.1478 15.5484 5.60028 13.7703 6.1232L10.5373 7.07403L9.12009 6.65907C8.34061 6.43083 7.65053 6.26073 7.58658 6.28105C7.42785 6.33143 7.36503 6.60656 7.48493 6.72639C7.60871 6.85017 10.2352 7.6224 10.5325 7.6224C10.6599 7.6224 11.8161 7.31296 13.1019 6.93475C14.3876 6.55655 15.4609 6.2471 15.4869 6.2471C15.5711 6.2471 15.542 7.41323 15.4561 7.48368C15.2936 7.61702 14.234 8.11376 13.7839 8.2676C12.5536 8.68801 11.0613 8.86686 9.72047 8.75464C8.35749 8.64056 7.25088 8.33806 6.18846 7.78912L5.56333 7.46612L5.54545 6.85661C5.53526 6.50928 5.55257 6.2471 5.58571 6.2471C5.61771 6.2471 5.82957 6.30443 6.0565 6.37451C6.54942 6.52679 6.71983 6.47709 6.71983 6.18103C6.71983 6.048 6.67944 5.97611 6.57917 5.93072C6.50178 5.89571 5.25982 5.52082 3.8192 5.09761C2.37858 4.67439 1.2252 4.31281 1.25615 4.29406C1.28709 4.27536 3.38767 3.64998 5.92415 2.90438L10.5358 1.54871L11.5504 1.84253C12.4859 2.11346 13.3996 2.38352 15.3921 2.9779C16.1362 3.19988 16.1599 3.20288 16.283 3.09148C16.449 2.9412 16.4434 2.77067 16.2688 2.66045C16.1513 2.58638 15.1079 2.26543 12.8774 1.61742C12.6711 1.55747 12.1113 1.39312 11.6333 1.25221C11.1554 1.11131 10.649 0.997782 10.5081 1.00003C10.3672 1.00228 8.15607 1.62248 5.59458 2.37827ZM19.2899 8.1177C19.6225 8.45039 19.5079 8.97694 19.0714 9.12104C18.8171 9.20493 18.462 9.08697 18.3523 8.88205C18.1322 8.47065 18.4299 7.93497 18.8787 7.93497C19.0478 7.93497 19.1546 7.98242 19.2899 8.1177ZM7.21993 8.86242C8.43126 9.25657 8.97956 9.33471 10.5331 9.33471C11.7507 9.33471 12.0279 9.31595 12.5961 9.19518C13.477 9.00795 14.3247 8.72608 14.9872 8.40007L15.5342 8.13095V8.48984C15.5342 8.68726 15.4991 8.89549 15.4561 8.95263C15.3571 9.08422 14.5754 9.44473 13.9379 9.65284C12.7995 10.0245 10.7611 10.2728 9.95096 10.1386C9.73023 10.1019 8.64568 9.79593 7.54088 9.45842L5.53207 8.84479V8.48784V8.13095L6.07906 8.40007C6.37994 8.5481 6.8933 8.75615 7.21993 8.86242ZM3.31603 8.96444C3.36585 9.08365 3.40661 9.28901 3.40661 9.42079C3.40661 9.68866 3.49407 9.81081 3.6848 9.80943C3.93279 9.80756 3.99211 9.7146 3.9823 9.34296C3.97423 9.03671 3.98711 8.99463 4.08051 9.02214C5.1483 9.33671 8.64418 10.4079 8.78996 10.4653C9.03983 10.5634 9.11634 11.3193 8.93743 11.9217C8.82928 12.286 8.51453 12.7326 8.26866 12.8705C8.08231 12.9751 8.37018 13.0501 5.00071 12.0188C4.038 11.7242 3.24214 11.4759 3.23214 11.4672C3.22213 11.4585 3.28121 11.3705 3.36348 11.2717C3.70224 10.8645 3.72437 10.5956 3.4253 10.5205C3.28733 10.4859 3.22238 10.5287 2.9622 10.8253C2.61557 11.2205 2.46528 11.2847 2.26549 11.1229C2.13915 11.0206 2.12508 10.9539 2.12508 10.4566C2.12508 9.78687 2.25424 9.40472 2.61163 9.01701C2.93876 8.66206 3.18212 8.64393 3.31603 8.96444ZM19.1273 9.89695C19.3436 10.1133 19.4301 10.5005 19.4361 11.2794L19.4413 11.9671H18.8787H18.3161L18.3213 11.2794C18.3242 10.9012 18.3613 10.469 18.4038 10.3189C18.4869 10.0253 18.7177 9.74786 18.8787 9.74786C18.9334 9.74786 19.0452 9.81494 19.1273 9.89695ZM11.9084 11.4038C14.5352 12.1986 14.4828 12.1787 14.6162 12.4359C14.738 12.6707 14.7297 13.1692 14.5965 13.6348C14.5136 13.924 14.1801 14.4202 13.9601 14.5815L13.7925 14.7044L12.616 14.3459C9.76748 13.4779 8.99807 13.2344 8.94593 13.1845C8.91405 13.1538 8.96481 13.043 9.06521 12.9242C9.43798 12.483 9.70728 11.5801 9.63871 11.0013L9.60251 10.6956L9.86469 10.7801C10.0089 10.8267 10.9285 11.1073 11.9084 11.4038Z" fill="#FBD501" stroke="#FBD501" stroke-width="0.2"/>
</svg>
