<svg width="173" height="44" viewBox="0 0 173 44" fill="none" xmlns="http://www.w3.org/2000/svg">
<rect width="172.698" height="44" rx="22" fill="#12245A"/>
<path d="M53.696 24.0084C53.6881 24.3997 53.6013 24.7852 53.4409 25.1421C53.2458 25.5826 52.9731 25.9845 52.636 26.3287C52.2395 26.7378 51.762 27.0595 51.234 27.2734C50.602 27.5238 49.9259 27.644 49.2463 27.6268C48.7197 27.6315 48.1943 27.577 47.6799 27.4643C47.2296 27.3627 46.798 27.1912 46.4008 26.956C46.0018 26.7123 45.645 26.4054 45.3445 26.0472C45.0519 25.6976 44.805 25.3122 44.6095 24.9003C44.4036 24.4694 44.2507 24.0151 44.1542 23.5474C44.0499 23.0446 43.9986 22.5323 44.0011 22.0188C43.9873 21.2185 44.1152 20.4221 44.379 19.6664C44.6159 19.0046 44.9886 18.3997 45.473 17.8903C45.943 17.3982 46.5124 17.0117 47.1433 16.7567C47.7921 16.5001 48.4844 16.3718 49.182 16.3788C49.997 16.364 50.8037 16.5448 51.5344 16.9059C52.1595 17.2042 52.7018 17.6512 53.114 18.2078C53.4446 18.6283 53.6355 19.1416 53.6601 19.6759C53.6625 19.9255 53.5661 20.166 53.3918 20.3448C53.3126 20.436 53.2148 20.5091 53.105 20.5593C52.9951 20.6095 52.8758 20.6356 52.755 20.6357C52.5256 20.6524 52.2985 20.5808 52.1202 20.4355C51.9305 20.2298 51.772 19.9974 51.6497 19.7458C51.4143 19.2671 51.0669 18.8522 50.6369 18.5365C50.211 18.2582 49.7095 18.1182 49.2009 18.136C48.7859 18.123 48.3739 18.2095 47.9991 18.3884C47.6244 18.5672 47.2979 18.8331 47.047 19.1638C46.5103 19.8516 46.242 20.8285 46.242 22.0944C46.2201 22.8145 46.3408 23.5317 46.5973 24.2049C46.7963 24.7181 47.1486 25.1575 47.6062 25.4633C48.0651 25.7462 48.5959 25.8906 49.1348 25.879C49.7069 25.8976 50.2699 25.732 50.7409 25.4067C51.2047 25.0579 51.5503 24.5751 51.7309 24.0236C51.8071 23.7719 51.9253 23.5349 52.0805 23.3226C52.1623 23.2279 52.2655 23.1541 52.3814 23.1071C52.4974 23.0601 52.6228 23.0414 52.7475 23.0524C52.8726 23.0502 52.9968 23.0733 53.1127 23.1204C53.2287 23.1675 53.3339 23.2376 53.422 23.3263C53.5127 23.4147 53.5839 23.521 53.631 23.6385C53.6782 23.7559 53.7003 23.8819 53.696 24.0084Z" fill="white"/>
<path d="M57.5171 17.6128V20.6171C57.7404 20.3532 57.9941 20.1167 58.2729 19.9123C58.5201 19.7382 58.7947 19.6066 59.0854 19.5231C59.3962 19.4342 59.7182 19.3903 60.0414 19.3927C60.5173 19.385 60.9873 19.4981 61.4075 19.7215C61.7284 19.9073 62.0046 20.1613 62.2165 20.4656C62.4283 20.7699 62.5708 21.117 62.6338 21.4825C62.6877 21.8249 62.713 22.1712 62.7094 22.5179V26.397C62.7334 26.7274 62.6345 27.0552 62.4316 27.3171C62.3389 27.4201 62.2246 27.5014 62.0969 27.5553C61.9693 27.6092 61.8313 27.6343 61.6928 27.6289C61.0265 27.6289 60.6927 27.2183 60.6914 26.397V22.9789C60.6914 22.3302 60.5951 21.8314 60.4023 21.4825C60.2096 21.1335 59.8437 20.9597 59.3045 20.961C58.9548 20.9573 58.6128 21.0645 58.3277 21.2671C58.0344 21.479 57.8092 21.7719 57.6796 22.1098C57.57 22.4121 57.5152 22.9487 57.5152 23.7196V26.397C57.5386 26.725 57.4426 27.0504 57.245 27.3134C57.1508 27.4193 57.0339 27.5027 56.9031 27.5573C56.7723 27.6119 56.6308 27.6364 56.4892 27.6289C55.8204 27.6289 55.4878 27.2189 55.4878 26.397V17.6128C55.463 17.2834 55.5561 16.956 55.7505 16.6889C55.8431 16.5845 55.9583 16.5028 56.0873 16.4497C56.2163 16.3967 56.3557 16.3738 56.4949 16.3828C56.6362 16.3748 56.7775 16.3987 56.9083 16.4527C57.0391 16.5066 57.1561 16.5893 57.2507 16.6945C57.4475 16.9584 57.5422 17.2846 57.5171 17.6128Z" fill="white"/>
<path d="M70.3646 24.0083H66.3967C66.3934 24.43 66.4885 24.8466 66.6745 25.2251C66.8289 25.5492 67.0737 25.8217 67.3795 26.0097C67.6852 26.1978 68.0388 26.2934 68.3977 26.2851C68.6222 26.2875 68.846 26.2589 69.0628 26.2001C69.2688 26.1405 69.4649 26.0507 69.6447 25.9337C69.8269 25.8164 70.0005 25.6863 70.1643 25.5445C70.3212 25.4065 70.5271 25.2176 70.7784 24.9776C70.9064 24.8816 71.0646 24.8347 71.2243 24.8454C71.4078 24.837 71.5878 24.8977 71.7288 25.0154C71.7938 25.0769 71.8444 25.1519 71.8771 25.2352C71.9097 25.3185 71.9236 25.408 71.9178 25.4972C71.903 25.7264 71.8287 25.9478 71.7024 26.1396C71.5331 26.4136 71.3131 26.6528 71.0543 26.8444C70.7251 27.093 70.3566 27.2846 69.964 27.4113C69.4758 27.568 68.9651 27.6433 68.4525 27.6342C67.15 27.6342 66.1385 27.2632 65.418 26.5213C64.6974 25.7794 64.3365 24.7717 64.3353 23.4982C64.3302 22.9323 64.4202 22.3696 64.6017 21.8335C64.7655 21.3429 65.0308 20.8923 65.3802 20.5109C65.7317 20.1381 66.1633 19.85 66.6423 19.6682C67.1728 19.4676 67.7361 19.3682 68.3032 19.3753C69.0152 19.357 69.7189 19.5313 70.34 19.8798C70.8757 20.1844 71.3156 20.6327 71.6098 21.1741C71.8826 21.6699 72.028 22.2256 72.033 22.7915C72.033 23.3017 71.8869 23.6317 71.5947 23.7816C71.2079 23.9518 70.7867 24.0294 70.3646 24.0083ZM66.3967 22.8595H70.068C70.0188 22.1655 69.8299 21.6471 69.5011 21.3045C69.3367 21.1327 69.1376 20.9978 68.9171 20.9089C68.6965 20.8199 68.4596 20.779 68.2219 20.7887C67.9893 20.7818 67.7579 20.8249 67.5434 20.9152C67.3289 21.0055 67.1363 21.1409 66.9787 21.312C66.6707 21.6616 66.4742 22.1755 66.4043 22.8595H66.3967Z" fill="white"/>
<path d="M78.8592 26.4933C78.4252 26.8398 77.9475 27.1276 77.4383 27.3492C76.9485 27.5431 76.4251 27.6375 75.8984 27.627C75.4241 27.6374 74.9545 27.5317 74.5304 27.319C74.1563 27.1305 73.8417 26.8421 73.6216 26.4857C73.4123 26.1447 73.3017 25.7522 73.3023 25.3521C73.2906 24.8297 73.4792 24.3227 73.8294 23.935C74.2154 23.525 74.7227 23.2495 75.2768 23.1489C75.4052 23.1187 75.7227 23.0526 76.2328 22.9487C76.743 22.8447 77.1776 22.7597 77.5422 22.6633C77.9069 22.567 78.298 22.4744 78.7251 22.3478C78.6999 21.8137 78.5922 21.422 78.402 21.1726C78.2117 20.9231 77.8175 20.7972 77.2191 20.7947C76.8204 20.7723 76.4221 20.8475 76.059 21.0138C75.7861 21.1672 75.5556 21.386 75.3882 21.6506C75.2676 21.8465 75.1364 22.0357 74.9952 22.2174C74.9197 22.31 74.7553 22.3554 74.5021 22.3554C74.2851 22.3586 74.0747 22.2804 73.9126 22.1362C73.8312 22.0665 73.7667 21.9793 73.7239 21.8811C73.681 21.783 73.6609 21.6764 73.665 21.5693C73.6721 21.1912 73.8051 20.8261 74.0429 20.532C74.353 20.1528 74.7607 19.8654 75.222 19.7007C75.8601 19.4652 76.5374 19.3543 77.2173 19.3738C78.1066 19.3738 78.8063 19.479 79.3165 19.6893C79.7929 19.8684 80.1807 20.2263 80.3972 20.687C80.6287 21.2613 80.7356 21.8783 80.7109 22.4971C80.7109 22.9732 80.7109 23.3757 80.7109 23.7063C80.7109 24.037 80.7109 24.4073 80.7014 24.8117C80.7046 25.2157 80.7683 25.6169 80.8904 26.002C80.9813 26.2604 81.0446 26.5277 81.0793 26.7994C81.0748 26.9095 81.0462 27.0173 80.9956 27.1152C80.9451 27.2132 80.8737 27.2988 80.7865 27.3662C80.6026 27.5353 80.3616 27.6284 80.1119 27.627C79.8762 27.6138 79.655 27.5087 79.496 27.3341C79.2502 27.0809 79.0364 26.7985 78.8592 26.4933ZM78.7251 23.5627C78.3015 23.7052 77.8692 23.8201 77.4308 23.9066C76.8639 24.0275 76.4728 24.1182 76.2555 24.1749C76.0257 24.2385 75.8128 24.3521 75.632 24.5075C75.5328 24.5926 75.4544 24.6994 75.403 24.8197C75.3515 24.9399 75.3284 25.0703 75.3353 25.2009C75.3334 25.3491 75.3636 25.496 75.424 25.6314C75.4843 25.7667 75.5734 25.8874 75.6849 25.985C75.9356 26.2058 76.2619 26.3209 76.5956 26.3062C76.9812 26.3102 77.3619 26.22 77.7047 26.0436C78.0143 25.8951 78.2737 25.6593 78.4511 25.3653C78.635 25.0579 78.7263 24.5541 78.7251 23.8537V23.5627Z" fill="white"/>
<path d="M84.4383 20.5301V20.7738C84.7619 20.3539 85.1659 20.0025 85.6267 19.7403C86.0564 19.5148 86.536 19.4011 87.0212 19.4096C87.6288 19.4056 88.2253 19.5725 88.7425 19.8914C89.2831 20.2322 89.7141 20.7216 89.9839 21.301C90.3031 21.9879 90.4596 22.7393 90.4411 23.4965C90.4471 24.0796 90.3578 24.6598 90.1766 25.2141C90.0253 25.6985 89.7793 26.1481 89.4529 26.5367C89.1542 26.8843 88.7835 27.1628 88.3665 27.3529C87.944 27.5444 87.485 27.6418 87.0212 27.6383C86.5125 27.6561 86.0084 27.536 85.5625 27.2906C85.1284 27.0207 84.7474 26.6736 84.4383 26.2665V29.3085C84.4383 30.1991 84.1145 30.6438 83.4671 30.6425C83.0892 30.6425 82.8341 30.5273 82.7113 30.2986C82.5686 29.9836 82.5038 29.6388 82.5223 29.2934V20.5452C82.4989 20.2356 82.5889 19.928 82.7755 19.6798C82.8625 19.5845 82.9694 19.5096 83.0885 19.4603C83.2077 19.411 83.3363 19.3885 83.4652 19.3945C83.5968 19.3904 83.7277 19.4148 83.849 19.466C83.9703 19.5172 84.0792 19.594 84.1681 19.6911C84.3616 19.9262 84.4583 20.2262 84.4383 20.5301ZM88.408 23.4701C88.4201 22.9991 88.3365 22.5305 88.1624 22.0927C88.0222 21.7425 87.7866 21.4387 87.4822 21.2159C87.2032 21.0138 86.8669 20.9059 86.5223 20.908C86.2523 20.9051 85.985 20.9631 85.7403 21.0776C85.4957 21.1921 85.2799 21.3601 85.109 21.5693C84.7311 22.0076 84.539 22.6551 84.5327 23.5117C84.5327 24.3191 84.7217 24.9489 85.0996 25.4011C85.269 25.6137 85.4847 25.7848 85.7303 25.9014C85.9759 26.018 86.2448 26.0769 86.5167 26.0738C86.8505 26.0741 87.1763 25.9719 87.4501 25.7809C87.7585 25.5585 87.9977 25.2532 88.1397 24.9004C88.3295 24.448 88.421 23.9605 88.408 23.4701Z" fill="white"/>
<path d="M97.7174 24.0085H93.7495C93.7443 24.4304 93.8395 24.8475 94.0272 25.2253C94.1807 25.5473 94.4235 25.8184 94.7266 26.0063C95.0298 26.1942 95.3806 26.2911 95.7372 26.2853C95.9611 26.2877 96.1843 26.2591 96.4004 26.2003C96.6066 26.141 96.8028 26.0512 96.9824 25.9339C97.1648 25.817 97.3385 25.6869 97.502 25.5446C97.6607 25.4061 97.866 25.2171 98.1179 24.9778C98.2459 24.8818 98.4042 24.8349 98.5638 24.8455C98.7473 24.8374 98.9272 24.898 99.0683 25.0156C99.1333 25.0771 99.1839 25.1521 99.2166 25.2354C99.2492 25.3187 99.2631 25.4081 99.2573 25.4974C99.2425 25.7266 99.1682 25.948 99.0419 26.1398C98.8719 26.4138 98.6513 26.653 98.3919 26.8446C98.063 27.0936 97.6944 27.2852 97.3017 27.4114C96.8135 27.5682 96.3028 27.6435 95.7901 27.6344C94.4901 27.6344 93.4787 27.2634 92.7556 26.5215C92.0326 25.7796 91.6717 24.7718 91.673 23.4983C91.6675 22.9323 91.7583 22.3694 91.9413 21.8337C92.1043 21.3428 92.3696 20.892 92.7197 20.5111C93.0705 20.1383 93.5015 19.8502 93.98 19.6684C94.5111 19.4678 95.0751 19.3684 95.6427 19.3755C96.3567 19.3559 97.0625 19.5302 97.6852 19.88C98.2221 20.1842 98.6632 20.6325 98.9587 21.1743C99.233 21.6697 99.3797 22.2255 99.3858 22.7917C99.3858 23.3018 99.2403 23.6319 98.9493 23.7818C98.5618 23.9519 98.14 24.0295 97.7174 24.0085ZM93.7495 22.8597H97.4207C97.3716 22.1656 97.1826 21.6473 96.8539 21.3047C96.6895 21.1328 96.4904 20.9978 96.2699 20.9089C96.0493 20.82 95.8123 20.779 95.5747 20.7888C95.3424 20.782 95.1113 20.8252 94.8971 20.9155C94.6829 21.0058 94.4906 21.1411 94.3333 21.3122C94.0216 21.6618 93.8251 22.1757 93.757 22.8597H93.7495Z" fill="white"/>
<path d="M107.613 24.9815C107.637 25.4944 107.491 26.0009 107.2 26.4233C106.908 26.8458 106.486 27.161 105.998 27.3207C105.376 27.5404 104.719 27.6442 104.059 27.6268C103.42 27.6432 102.784 27.5295 102.191 27.2924C101.74 27.1213 101.343 26.8338 101.04 26.4591C100.807 26.1744 100.675 25.8213 100.662 25.4539C100.661 25.3484 100.681 25.2437 100.722 25.1462C100.762 25.0488 100.822 24.9606 100.898 24.8871C100.977 24.8085 101.071 24.7468 101.174 24.7059C101.277 24.6649 101.388 24.6456 101.499 24.649C101.676 24.637 101.852 24.6923 101.99 24.8039C102.122 24.9316 102.231 25.0796 102.315 25.2423C102.495 25.5713 102.755 25.8495 103.071 26.051C103.434 26.2462 103.843 26.3384 104.254 26.3174C104.606 26.3322 104.955 26.2378 105.252 26.0472C105.364 25.9853 105.458 25.896 105.526 25.7876C105.594 25.6792 105.634 25.5553 105.641 25.4275C105.652 25.2731 105.62 25.1187 105.548 24.9813C105.477 24.844 105.369 24.729 105.236 24.649C104.82 24.4309 104.375 24.2731 103.914 24.1804C103.333 24.046 102.764 23.864 102.213 23.6362C101.81 23.469 101.451 23.2103 101.165 22.8805C100.898 22.5582 100.758 22.1497 100.772 21.7317C100.773 21.3202 100.9 20.9189 101.134 20.581C101.404 20.1982 101.776 19.899 102.208 19.7175C102.745 19.4897 103.325 19.3796 103.908 19.3944C104.384 19.3887 104.858 19.4439 105.32 19.5588C105.69 19.646 106.044 19.7935 106.366 19.9952C106.618 20.1523 106.836 20.3594 107.005 20.6036C107.14 20.7954 107.216 21.0229 107.222 21.2574C107.225 21.3629 107.206 21.4678 107.166 21.5654C107.126 21.6631 107.066 21.7512 106.99 21.8242C106.806 21.9822 106.567 22.0622 106.325 22.0472C106.133 22.0521 105.945 21.9885 105.796 21.8677C105.61 21.7089 105.442 21.5302 105.295 21.3349C105.148 21.1418 104.964 20.9805 104.753 20.8606C104.491 20.7291 104.2 20.6673 103.908 20.6811C103.588 20.6695 103.271 20.7509 102.996 20.9154C102.888 20.9712 102.798 21.0545 102.734 21.1568C102.67 21.2591 102.634 21.3767 102.631 21.4974C102.629 21.5999 102.653 21.7012 102.7 21.7925C102.747 21.8837 102.815 21.9621 102.899 22.0208C103.117 22.1751 103.36 22.2897 103.617 22.359C103.919 22.4471 104.335 22.5555 104.864 22.684C105.398 22.8039 105.915 22.9885 106.404 23.2338C106.76 23.4121 107.07 23.6709 107.309 23.9896C107.513 24.2798 107.619 24.6271 107.613 24.9815Z" fill="white"/>
<path d="M109.437 19.5719H109.66V18.355C109.66 18.0301 109.66 17.7731 109.686 17.5879C109.699 17.4197 109.748 17.2564 109.832 17.1099C109.913 16.9688 110.03 16.8521 110.172 16.7717C110.323 16.6848 110.495 16.6404 110.669 16.6432C110.93 16.6449 111.18 16.7487 111.366 16.9323C111.502 17.0569 111.595 17.2217 111.631 17.4028C111.672 17.6638 111.691 17.9282 111.685 18.1926V19.5719H112.422C112.659 19.5552 112.893 19.6281 113.078 19.7759C113.152 19.8413 113.21 19.9221 113.249 20.0125C113.288 20.1029 113.307 20.2008 113.305 20.2993C113.313 20.4152 113.287 20.5311 113.23 20.6321C113.172 20.7331 113.086 20.8146 112.982 20.8662C112.69 20.9907 112.374 21.0469 112.058 21.0305H111.68V24.7547C111.676 24.9983 111.687 25.2418 111.714 25.484C111.727 25.6379 111.79 25.7834 111.891 25.8997C111.954 25.9584 112.028 26.0031 112.109 26.0308C112.19 26.0585 112.276 26.0685 112.362 26.0603C112.524 26.0552 112.686 26.0336 112.844 25.9961C113 25.9603 113.159 25.9394 113.32 25.9337C113.402 25.9339 113.483 25.9507 113.559 25.9832C113.635 26.0157 113.703 26.0631 113.76 26.1227C113.823 26.1863 113.872 26.2623 113.905 26.3458C113.937 26.4294 113.952 26.5187 113.949 26.6083C113.949 26.9358 113.771 27.1877 113.416 27.364C112.933 27.5597 112.414 27.6492 111.893 27.6267C111.263 27.6267 110.783 27.5202 110.453 27.3074C110.135 27.1058 109.906 26.7901 109.813 26.425C109.697 25.9297 109.646 25.4217 109.66 24.9134V21.0343H109.399C109.158 21.0506 108.92 20.9765 108.73 20.8265C108.656 20.7607 108.597 20.6794 108.557 20.5883C108.518 20.4972 108.499 20.3986 108.502 20.2993C108.499 20.1996 108.519 20.1006 108.561 20.0099C108.603 19.9192 108.664 19.8392 108.742 19.7759C108.942 19.6282 109.188 19.5559 109.437 19.5719Z" fill="white"/>
<path d="M125.809 18.2663H120.847V20.938H125.416C125.687 20.9165 125.957 20.9974 126.171 21.1647C126.254 21.2413 126.319 21.3352 126.361 21.4397C126.404 21.5442 126.423 21.6567 126.417 21.7693C126.421 21.8816 126.401 21.9933 126.359 22.0974C126.317 22.2016 126.254 22.2958 126.173 22.374C125.96 22.5452 125.69 22.6283 125.417 22.6064H120.847V25.6994H125.981C126.26 25.6755 126.539 25.7563 126.763 25.9262C126.851 26.0078 126.919 26.1075 126.965 26.2185C127.01 26.3294 127.031 26.4489 127.025 26.5686C127.03 26.6857 127.008 26.8023 126.963 26.9103C126.918 27.0183 126.849 27.1151 126.763 27.194C126.542 27.3709 126.262 27.4574 125.981 27.4359H119.993C119.513 27.4359 119.168 27.3294 118.959 27.1166C118.748 26.9049 118.644 26.561 118.644 26.0849V17.9186C118.634 17.6533 118.682 17.3891 118.783 17.1439C118.872 16.949 119.028 16.793 119.224 16.7056C119.467 16.606 119.728 16.559 119.991 16.5676H125.807C126.089 16.5449 126.369 16.6285 126.593 16.8019C126.678 16.8803 126.746 16.9767 126.79 17.0842C126.834 17.1917 126.854 17.3076 126.848 17.4236C126.851 17.5376 126.83 17.651 126.786 17.7562C126.742 17.8614 126.676 17.9561 126.593 18.0339C126.369 18.2062 126.09 18.2891 125.809 18.2663Z" fill="#FBD501"/>
<path d="M135.157 24.9817C135.181 25.4947 135.036 26.0013 134.745 26.4242C134.453 26.847 134.031 27.1626 133.543 27.3228C132.921 27.5422 132.264 27.6453 131.605 27.627C130.965 27.6434 130.329 27.5296 129.734 27.2925C129.284 27.1211 128.888 26.8336 128.585 26.4593C128.353 26.1744 128.22 25.8214 128.207 25.4541C128.206 25.3483 128.227 25.2435 128.268 25.146C128.309 25.0485 128.369 24.9604 128.446 24.8872C128.524 24.8087 128.618 24.747 128.721 24.706C128.825 24.6651 128.935 24.6457 129.046 24.6492C129.223 24.6367 129.398 24.6921 129.536 24.8041C129.668 24.9316 129.778 25.0797 129.863 25.2425C130.039 25.5707 130.296 25.8489 130.609 26.0512C130.971 26.2466 131.381 26.3387 131.792 26.3176C132.144 26.3318 132.492 26.2375 132.789 26.0474C132.901 25.9855 132.996 25.8962 133.064 25.7878C133.132 25.6794 133.172 25.5554 133.179 25.4276C133.189 25.2732 133.157 25.1188 133.086 24.9815C133.015 24.8441 132.907 24.7291 132.774 24.6492C132.358 24.4316 131.912 24.2739 131.452 24.1806C130.871 24.046 130.302 23.864 129.751 23.6364C129.347 23.4697 128.988 23.2108 128.702 22.8806C128.436 22.5584 128.296 22.1499 128.309 21.7318C128.311 21.3204 128.438 20.9191 128.672 20.5811C128.941 20.1984 129.312 19.8992 129.744 19.7176C130.284 19.4889 130.867 19.3788 131.454 19.3946C131.93 19.3887 132.405 19.444 132.867 19.5589C133.237 19.6465 133.591 19.794 133.914 19.9954C134.166 20.152 134.383 20.3592 134.55 20.6038C134.687 20.7951 134.763 21.0227 134.77 21.2576C134.772 21.3632 134.753 21.4682 134.713 21.5658C134.672 21.6635 134.612 21.7515 134.535 21.8244C134.352 21.9826 134.114 22.0627 133.872 22.0474C133.679 22.0521 133.491 21.9885 133.341 21.8679C133.153 21.7098 132.981 21.5325 132.829 21.3388C132.683 21.1458 132.499 20.9845 132.289 20.8646C132.027 20.7327 131.735 20.6709 131.442 20.6851C131.122 20.6737 130.805 20.7551 130.53 20.9194C130.423 20.9755 130.333 21.059 130.27 21.1613C130.206 21.2635 130.17 21.3809 130.167 21.5013C130.165 21.6036 130.189 21.7047 130.235 21.7959C130.282 21.8871 130.35 21.9656 130.433 22.0247C130.651 22.179 130.895 22.2935 131.153 22.3629C131.455 22.4511 131.871 22.5594 132.4 22.6879C132.933 22.8075 133.45 22.9921 133.938 23.2377C134.295 23.415 134.605 23.6739 134.843 23.9935C135.05 24.2811 135.16 24.6273 135.157 24.9817Z" fill="#FBD501"/>
<path d="M143.391 24.9815C143.415 25.4945 143.27 26.0011 142.979 26.4239C142.687 26.8468 142.265 27.1624 141.777 27.3225C141.155 27.542 140.498 27.6451 139.839 27.6268C139.199 27.6431 138.562 27.5294 137.968 27.2923C137.518 27.1208 137.122 26.8333 136.819 26.4591C136.587 26.1742 136.454 25.8212 136.441 25.4539C136.44 25.3481 136.461 25.2432 136.502 25.1457C136.543 25.0482 136.603 24.9602 136.679 24.887C136.758 24.8084 136.852 24.7468 136.955 24.7058C137.059 24.6649 137.169 24.6455 137.28 24.6489C137.457 24.6365 137.632 24.6919 137.77 24.8039C137.902 24.9314 138.012 25.0794 138.097 25.2422C138.276 25.5716 138.536 25.8499 138.852 26.0509C139.215 26.2464 139.624 26.3385 140.035 26.3173C140.387 26.3316 140.736 26.2373 141.033 26.0472C141.145 25.9853 141.239 25.8959 141.307 25.7875C141.375 25.6791 141.415 25.5552 141.422 25.4274C141.433 25.273 141.401 25.1186 141.329 24.9813C141.258 24.8439 141.15 24.7289 141.018 24.6489C140.598 24.4306 140.15 24.2728 139.686 24.1804C139.105 24.0458 138.536 23.8638 137.985 23.6362C137.581 23.4694 137.222 23.2106 136.936 22.8804C136.67 22.5582 136.53 22.1496 136.543 21.7316C136.545 21.3201 136.671 20.9189 136.906 20.5809C137.175 20.1982 137.546 19.8989 137.977 19.7174C138.515 19.49 139.095 19.3799 139.678 19.3943C140.154 19.3885 140.629 19.4437 141.091 19.5587C141.462 19.6463 141.815 19.7937 142.138 19.9952C142.39 20.1518 142.607 20.3589 142.775 20.6036C142.911 20.7948 142.988 21.0225 142.994 21.2573C142.997 21.3628 142.978 21.4677 142.938 21.5654C142.898 21.663 142.838 21.7512 142.762 21.8242C142.577 21.9821 142.339 22.0621 142.097 22.0471C141.904 22.0518 141.716 21.9883 141.566 21.8676C141.381 21.7078 141.213 21.5293 141.065 21.3348C140.919 21.1418 140.735 20.9805 140.524 20.8606C140.263 20.7287 139.971 20.6669 139.678 20.6811C139.358 20.67 139.041 20.7513 138.765 20.9153C138.659 20.9715 138.569 21.055 138.505 21.1573C138.442 21.2595 138.406 21.3769 138.403 21.4973C138.401 21.5996 138.425 21.7007 138.471 21.7919C138.518 21.8831 138.586 21.9616 138.669 22.0207C138.887 22.175 139.131 22.2895 139.389 22.3589C139.691 22.4471 140.107 22.5554 140.636 22.6839C141.169 22.8035 141.686 22.9881 142.174 23.2337C142.531 23.411 142.841 23.6699 143.079 23.9895C143.286 24.2784 143.396 24.626 143.391 24.9815Z" fill="#FBD501"/>
<path d="M150.223 26.4932C149.789 26.8397 149.311 27.1274 148.802 27.3491C148.313 27.543 147.79 27.6374 147.264 27.6268C146.789 27.6375 146.319 27.5317 145.894 27.3189C145.52 27.1304 145.206 26.842 144.986 26.4856C144.778 26.144 144.668 25.7518 144.668 25.3519C144.657 24.83 144.845 24.3233 145.193 23.9348C145.579 23.5248 146.087 23.2494 146.641 23.1488C146.767 23.1186 147.085 23.0518 147.597 22.9485C148.108 22.8452 148.545 22.7501 148.906 22.6632C149.271 22.5763 149.662 22.4743 150.091 22.3477C150.064 21.8129 149.959 21.4218 149.768 21.1724C149.577 20.923 149.182 20.7945 148.585 20.7945C148.186 20.7723 147.787 20.8475 147.423 21.0137C147.15 21.1703 146.921 21.3924 146.756 21.6599C146.635 21.8554 146.503 22.0445 146.363 22.2267C146.295 22.2823 146.216 22.3232 146.131 22.347C146.046 22.3707 145.957 22.3767 145.87 22.3647C145.652 22.3682 145.441 22.29 145.278 22.1455C145.197 22.0755 145.133 21.9883 145.09 21.8902C145.047 21.7921 145.027 21.6856 145.031 21.5786C145.039 21.2007 145.172 20.8361 145.409 20.5413C145.72 20.163 146.127 19.8757 146.588 19.71C147.227 19.4744 147.904 19.3634 148.585 19.3831C149.476 19.3831 150.175 19.4883 150.684 19.6986C151.16 19.8778 151.547 20.2358 151.763 20.6963C151.995 21.2705 152.103 21.8875 152.079 22.5064C152.079 22.9825 152.079 23.3856 152.079 23.7156C152.079 24.0482 152.079 24.4166 152.067 24.821C152.07 25.225 152.134 25.6262 152.256 26.0113C152.348 26.2694 152.411 26.5368 152.445 26.8087C152.441 26.9188 152.412 27.0266 152.361 27.1245C152.311 27.2225 152.239 27.3081 152.152 27.3755C151.971 27.5405 151.734 27.6315 151.489 27.6306C151.253 27.6179 151.032 27.5126 150.873 27.3378C150.622 27.0841 150.404 26.8004 150.223 26.4932ZM150.091 23.5626C149.667 23.705 149.234 23.8199 148.795 23.9065C148.228 24.0274 147.837 24.1181 147.619 24.1748C147.39 24.2384 147.177 24.3519 146.996 24.5073C146.897 24.5928 146.819 24.6996 146.767 24.8198C146.716 24.9399 146.693 25.0702 146.699 25.2008C146.698 25.3489 146.728 25.4957 146.788 25.631C146.849 25.7663 146.938 25.887 147.049 25.9849C147.3 26.2057 147.627 26.3208 147.961 26.3061C148.347 26.3098 148.728 26.2197 149.071 26.0435C149.38 25.8934 149.639 25.6555 149.815 25.3595C149.999 25.0521 150.091 24.5483 150.091 23.8479V23.5626Z" fill="#FBD501"/>
<path d="M155.802 27.8814L155.991 27.428L153.495 21.153C153.373 20.9059 153.295 20.6392 153.265 20.3651C153.265 20.1953 153.311 20.0286 153.399 19.8833C153.488 19.7353 153.615 19.6129 153.765 19.5281C153.913 19.4412 154.08 19.3949 154.251 19.3939C154.375 19.3854 154.5 19.406 154.615 19.4543C154.73 19.5025 154.832 19.577 154.912 19.6717C155.09 19.9129 155.226 20.1825 155.313 20.4691L157.013 25.4554L158.642 20.8243C158.741 20.5234 158.858 20.2287 158.992 19.9419C159.06 19.7678 159.174 19.6155 159.322 19.5016C159.473 19.419 159.644 19.3803 159.816 19.3902C159.971 19.3909 160.123 19.4333 160.256 19.513C160.394 19.5905 160.507 19.7051 160.583 19.8436C160.659 19.9766 160.698 20.1271 160.698 20.2801C160.677 20.3746 160.645 20.5087 160.602 20.6807C160.558 20.8526 160.501 21.0302 160.439 21.2078L157.794 28.1214C157.619 28.6196 157.394 29.0994 157.125 29.5536C156.915 29.8931 156.617 30.1688 156.261 30.351C155.807 30.5559 155.31 30.6511 154.812 30.6287C154.359 30.6524 153.905 30.5882 153.476 30.4398C153.337 30.3853 153.218 30.2875 153.138 30.1607C153.057 30.0339 153.02 29.8847 153.03 29.735C153.025 29.6356 153.04 29.536 153.077 29.4433C153.113 29.3506 153.17 29.267 153.242 29.1984C153.421 29.06 153.644 28.9926 153.869 29.0095C153.977 29.0094 154.085 29.0247 154.189 29.0548C154.298 29.0819 154.409 29.0965 154.521 29.0983C154.71 29.1069 154.898 29.072 155.071 28.9962C155.221 28.9103 155.345 28.7856 155.43 28.6353C155.573 28.394 155.698 28.1419 155.802 27.8814Z" fill="#FBD501"/>
<path d="M21.9848 8.00001C24.7462 7.997 27.4468 8.81066 29.7469 10.3386C32.047 11.8666 33.8438 14.0407 34.9114 16.5873C35.979 19.1339 36.2697 21.9394 35.7469 24.6508C35.224 27.3622 33.911 29.8585 31.973 31.8255C30.035 33.7926 27.5586 35.1426 24.8553 35.7058C22.1519 36.2689 19.3425 36.0201 16.7802 34.9905C14.218 33.9609 12.0174 32.1966 10.4554 29.9195C8.89331 27.6424 8.03954 24.9542 8.00144 22.1931C7.97485 20.3396 8.31684 18.4992 9.00755 16.7789C9.69825 15.0586 10.7239 13.4928 12.0249 12.1722C13.3259 10.8517 14.8764 9.80285 16.5862 9.08661C18.296 8.37037 20.1311 8.00102 21.9848 8.00001ZM16.1709 32.0103C16.1974 32.006 16.2236 31.9999 16.2493 31.9922L22.2217 29.5176C22.3109 29.4806 22.3842 29.4132 22.4285 29.3274C23.5159 27.4745 24.6054 25.6225 25.6968 23.7715C27.1414 21.3149 28.5865 18.8584 30.0321 16.4018C30.3338 15.8752 30.2101 15.3697 29.682 15.0724C28.7419 14.5443 27.8048 14.0162 26.8663 13.482C26.0605 13.0293 25.2577 12.5646 24.452 12.124C23.9329 11.8403 23.4319 11.9851 23.1271 12.4936C22.7061 13.1983 22.2912 13.9075 21.8747 14.6062C20.6947 16.5899 19.5192 18.5722 18.3483 20.5529C17.3574 22.2289 16.3675 23.9063 15.3787 25.5853C15.3287 25.648 15.3039 25.7271 15.3093 25.8071C15.5034 27.1842 15.6945 28.5624 15.8827 29.9416C15.9777 30.6342 16.0743 31.3117 16.1709 32.0103Z" fill="#FBD501"/>
<path d="M16.172 32.0101C16.0754 31.3114 15.9789 30.6264 15.8838 29.9413C15.6937 28.5641 15.5025 27.186 15.3104 25.8068C15.3051 25.7268 15.3298 25.6477 15.3798 25.585C16.3677 23.907 17.3575 22.2296 18.3494 20.5526C19.5204 18.5699 20.6923 16.5886 21.8653 14.6089C22.2817 13.9027 22.6967 13.1935 23.1177 12.4964C23.4195 11.9879 23.9235 11.843 24.4425 12.1267C25.2528 12.5718 26.0556 13.0321 26.8569 13.4847C27.7954 14.0144 28.7325 14.541 29.6725 15.0752C30.2007 15.377 30.332 15.8779 30.0226 16.4045C28.5781 18.8601 27.135 21.3167 25.6935 23.7742C24.604 25.6272 23.5145 27.4792 22.4251 29.3302C22.3808 29.416 22.3076 29.4833 22.2184 29.5203L16.2505 31.992C16.2247 31.9996 16.1985 32.0057 16.172 32.0101Z" fill="#12245A"/>
</svg>
