<svg width="182" height="31" viewBox="0 0 182 31" fill="none" xmlns="http://www.w3.org/2000/svg">
<path d="M178.567 17.7829C176.671 17.7829 175.134 16.246 175.134 14.3501C175.134 12.4541 176.671 10.9172 178.567 10.9172C180.463 10.9172 182 12.4541 182 14.3501C182 16.246 180.463 17.7829 178.567 17.7829Z" fill="#1D3478"/>
<path d="M171.32 5.57717C170.056 5.57717 169.031 4.55253 169.031 3.28858C169.031 2.02463 170.056 1 171.32 1C172.584 1 173.608 2.02463 173.608 3.28858C173.608 4.55253 172.584 5.57717 171.32 5.57717Z" fill="#1D3478"/>
<path d="M163.691 22.7415C161.795 22.7415 160.258 21.2046 160.258 19.3087C160.258 17.4127 161.795 15.8758 163.691 15.8758C165.587 15.8758 167.124 17.4127 167.124 19.3087C167.124 21.2046 165.587 22.7415 163.691 22.7415Z" stroke="#1D3478"/>
<path d="M118.21 6.05131L131.719 1.67063C132.861 1.30025 134.087 1.92594 134.458 3.06814L140.746 22.4593C141.116 23.6015 140.49 24.8277 139.348 25.1981L125.839 29.5788C124.697 29.9492 123.47 29.3235 123.1 28.1813L116.812 8.79009C116.442 7.64789 117.067 6.4217 118.21 6.05131Z" fill="#1D3478"/>
<path d="M137.067 21.5023L125.837 25.144M132.299 6.79773L121.069 10.4394L132.299 6.79773ZM133.348 10.0329L122.118 13.6746L133.348 10.0329ZM134.492 13.5615L123.262 17.2032L134.492 13.5615ZM135.732 17.3851L124.502 21.0268L135.732 17.3851Z" stroke="white" stroke-opacity="0.2" strokeLinecap="round"/>
<path d="M75.0802 7.81673L79.9923 25.3426C79.9923 25.3426 81.9121 26.2724 82.5839 26.4681C83.2557 26.6645 84.2355 26.1325 84.5595 25.9564C84.8841 25.7811 97.2979 19.3158 97.2979 19.3158L90.9399 1.9342" stroke="#1D3478" stroke-miterlimit="10" strokeLinecap="round" strokeLinejoin="round"/>
<path d="M77.2549 6.57886L76.2366 7.10645" stroke="#1D3478" stroke-miterlimit="10" strokeLinecap="round" strokeLinejoin="round"/>
<path d="M80.1518 25.5723L94.0127 17.9468L88.3251 1L75.0794 7.63261" fill="#1D3478"/>
<path d="M80.1518 25.5723L94.0127 17.9468L88.3251 1L75.0794 7.63261" stroke="#1D3478" stroke-miterlimit="10" strokeLinecap="round" strokeLinejoin="round"/>
<path d="M81.5849 24.9005L83.3278 25.5063L96.2314 18.9121L90.928 3.73291L89.1749 2.89441" stroke="#1D3478" stroke-miterlimit="10" strokeLinecap="round" strokeLinejoin="round"/>
<path d="M84.1907 24.3823L86.0322 23.3815C86.0322 23.3815 86.5222 25.0034 87.1186 26.4673C87.7158 27.932 88.6035 29.7336 88.6035 29.7336L86.4381 28.3241L86.0518 30.7163L84.1907 24.3823Z" fill="#1D3478"/>
<path d="M46.1264 2.11729L54.3722 7.05686C55.4023 7.67391 55.7371 9.00917 55.12 10.0392L47.789 22.2771C47.172 23.3072 45.8367 23.642 44.8067 23.025L36.5609 18.0854C35.5308 17.4683 35.196 16.1331 35.813 15.103L43.144 2.86512C43.7611 1.83505 45.0963 1.50023 46.1264 2.11729Z" fill="#1D3478"/>
<path d="M46.4105 20.0609L38.5103 15.3285M52.3887 10.0809L44.4885 5.34845L52.3887 10.0809ZM51.0733 12.2768L43.1732 7.54434L51.0733 12.2768ZM49.6384 14.6719L41.7382 9.93953L49.6384 14.6719ZM48.0838 17.2664L40.1844 12.534L48.0838 17.2664Z" stroke="white" stroke-opacity="0.2" strokeLinecap="round"/>
<path d="M1.91321 4.93965L7.30971 2.03143C8.36674 1.46179 9.68542 1.85689 10.2551 2.91392L14.8203 11.3852C15.39 12.4422 14.9948 13.7609 13.9378 14.3306L8.54132 17.2388C7.48429 17.8084 6.16561 17.4133 5.59597 16.3563L1.03072 7.885C0.461076 6.82797 0.856182 5.50929 1.91321 4.93965Z" fill="#1D3478"/>
<path d="M12.9531 12.3107L7.12278 15.4523M8.81063 4.6236L2.98029 7.76524L8.81063 4.6236ZM9.72162 6.31437L3.89198 9.45675L9.72162 6.31437ZM10.7159 8.15949L4.8863 11.3011L10.7159 8.15949ZM11.7928 10.1583L5.9632 13.2999L11.7928 10.1583Z" stroke="white" stroke-opacity="0.2" strokeLinecap="round"/>
</svg>
