<svg width="183" height="31" viewBox="0 0 183 31" fill="none" xmlns="http://www.w3.org/2000/svg">
<path d="M4.13112 17.7829C6.02704 17.7829 7.56399 16.246 7.56399 14.3501C7.56399 12.4541 6.02704 10.9172 4.13112 10.9172C2.23519 10.9172 0.698242 12.4541 0.698242 14.3501C0.698242 16.246 2.23519 17.7829 4.13112 17.7829Z" fill="#1D3478"/>
<path d="M11.3784 5.57717C12.6424 5.57717 13.667 4.55253 13.667 3.28858C13.667 2.02463 12.6424 1 11.3784 1C10.1145 1 9.08984 2.02463 9.08984 3.28858C9.08984 4.55253 10.1145 5.57717 11.3784 5.57717Z" fill="#1D3478"/>
<path d="M19.0071 22.7415C20.903 22.7415 22.44 21.2046 22.44 19.3087C22.44 17.4127 20.903 15.8758 19.0071 15.8758C17.1112 15.8758 15.5742 17.4127 15.5742 19.3087C15.5742 21.2046 17.1112 22.7415 19.0071 22.7415Z" stroke="#1D3478"/>
<path d="M64.4887 6.05131L50.9793 1.67063C49.8371 1.30025 48.6109 1.92594 48.2405 3.06814L41.9525 22.4593C41.5821 23.6015 42.2078 24.8277 43.35 25.1981L56.8594 29.5788C58.0016 29.9492 59.2278 29.3235 59.5982 28.1813L65.8862 8.79009C66.2565 7.64789 65.6309 6.4217 64.4887 6.05131Z" fill="#1D3478"/>
<path d="M45.6309 21.5023L56.8611 25.144M50.3995 6.79773L61.6297 10.4394L50.3995 6.79773ZM49.3501 10.0329L60.5803 13.6746L49.3501 10.0329ZM48.2058 13.5615L59.436 17.2032L48.2058 13.5615ZM46.9658 17.3851L58.1967 21.0268L46.9658 17.3851Z" stroke="white" stroke-opacity="0.2" strokeLinecap="round"/>
<path d="M107.618 7.81673L102.706 25.3426C102.706 25.3426 100.786 26.2724 100.114 26.4681C99.4426 26.6645 98.4627 26.1325 98.1388 25.9564C97.8141 25.7811 85.4004 19.3158 85.4004 19.3158L91.7583 1.9342" stroke="#1D3478" stroke-miterlimit="10" strokeLinecap="round" strokeLinejoin="round"/>
<path d="M105.443 6.57886L106.462 7.10645" stroke="#1D3478" stroke-miterlimit="10" strokeLinecap="round" strokeLinejoin="round"/>
<path d="M102.546 25.5723L88.6855 17.9468L94.3731 1L107.619 7.63261" fill="#1D3478"/>
<path d="M102.546 25.5723L88.6855 17.9468L94.3731 1L107.619 7.63261" stroke="#1D3478" stroke-miterlimit="10" strokeLinecap="round" strokeLinejoin="round"/>
<path d="M101.113 24.9005L99.3704 25.5063L86.4668 18.9121L91.7703 3.73291L93.5234 2.89441" stroke="#1D3478" stroke-miterlimit="10" strokeLinecap="round" strokeLinejoin="round"/>
<path d="M98.5075 24.3823L96.666 23.3815C96.666 23.3815 96.1761 25.0034 95.5796 26.4673C94.9825 27.932 94.0947 29.7336 94.0947 29.7336L96.2602 28.3241L96.6465 30.7163L98.5075 24.3823Z" fill="#1D3478"/>
<path d="M136.572 2.11729L128.326 7.05686C127.296 7.67391 126.961 9.00917 127.578 10.0392L134.909 22.2771C135.526 23.3072 136.862 23.642 137.892 23.025L146.137 18.0854C147.167 17.4683 147.502 16.1331 146.885 15.103L139.554 2.86512C138.937 1.83505 137.602 1.50023 136.572 2.11729Z" fill="#1D3478"/>
<path d="M136.288 20.0609L144.188 15.3285M130.31 10.0809L138.21 5.34845L130.31 10.0809ZM131.625 12.2768L139.525 7.54434L131.625 12.2768ZM133.06 14.6719L140.96 9.93953L133.06 14.6719ZM134.614 17.2664L142.514 12.534L134.614 17.2664Z" stroke="white" stroke-opacity="0.2" strokeLinecap="round"/>
<path d="M180.785 4.93965L175.389 2.03143C174.332 1.46179 173.013 1.85689 172.443 2.91392L167.878 11.3852C167.308 12.4422 167.703 13.7609 168.76 14.3306L174.157 17.2388C175.214 17.8084 176.533 17.4133 177.102 16.3563L181.668 7.885C182.237 6.82797 181.842 5.50929 180.785 4.93965Z" fill="#1D3478"/>
<path d="M169.745 12.3107L175.575 15.4523M173.888 4.6236L179.718 7.76524L173.888 4.6236ZM172.977 6.31437L178.806 9.45675L172.977 6.31437ZM171.982 8.15949L177.812 11.3011L171.982 8.15949ZM170.905 10.1583L176.735 13.2999L170.905 10.1583Z" stroke="white" stroke-opacity="0.2" strokeLinecap="round"/>
</svg>
