<svg width="61" height="24" viewBox="0 0 61 24" fill="none" xmlns="http://www.w3.org/2000/svg">
<g clip-path="url(#clip0_8021_19351)">
<path d="M28.5854 11.7245V18.7597H26.3535V1.38593H32.2728C32.9793 1.37117 33.6818 1.49649 34.3397 1.75464C34.9975 2.01279 35.5978 2.39867 36.1057 2.89001C36.6188 3.35151 37.0271 3.9175 37.3033 4.54994C37.5795 5.18237 37.7171 5.86659 37.7068 6.55661C37.7215 7.25033 37.586 7.93902 37.3097 8.57548C37.0333 9.21194 36.6226 9.78113 36.1057 10.244C35.0707 11.231 33.793 11.7241 32.2728 11.7231H28.5854V11.7245ZM28.5854 3.5249V9.58971H32.3282C32.7385 9.60187 33.1469 9.52826 33.5271 9.37358C33.9074 9.21891 34.2512 8.98657 34.5365 8.69143C34.8203 8.41548 35.0459 8.08542 35.2 7.72076C35.3541 7.35611 35.4334 6.96426 35.4334 6.5684C35.4334 6.17253 35.3541 5.78069 35.2 5.41603C35.0459 5.05138 34.8203 4.72132 34.5365 4.44537C34.2548 4.14401 33.9122 3.90598 33.5315 3.74705C33.1507 3.58812 32.7406 3.51193 32.3282 3.52352H28.5854V3.5249Z" fill="#5F6368"/>
<path d="M42.8483 6.48486C44.498 6.48486 45.8001 6.92569 46.7548 7.80734C47.7094 8.68899 48.1863 9.89779 48.1854 11.4337V18.76H46.0506V17.1104H45.9535C45.0294 18.4689 43.8002 19.1482 42.2661 19.1482C40.9566 19.1482 39.861 18.76 38.9793 17.9837C38.5562 17.6274 38.218 17.1812 37.9892 16.6776C37.7604 16.174 37.6469 15.6257 37.6569 15.0726C37.6569 13.8426 38.1217 12.8643 39.0514 12.138C39.9811 11.4116 41.2223 11.0474 42.7749 11.0456C44.1001 11.0456 45.1915 11.2882 46.0492 11.7734V11.2632C46.0517 10.8862 45.9703 10.5133 45.8108 10.1717C45.6514 9.82999 45.4179 9.52809 45.1273 9.28784C44.5371 8.75536 43.7679 8.46482 42.9731 8.47412C41.7264 8.47412 40.7399 8.99997 40.0135 10.0517L38.0478 8.81375C39.129 7.26116 40.7292 6.48486 42.8483 6.48486ZM39.9608 15.1211C39.9593 15.4052 40.0257 15.6855 40.1545 15.9387C40.2832 16.1919 40.4706 16.4106 40.701 16.5767C41.1947 16.965 41.8073 17.1707 42.4352 17.1589C43.377 17.1573 44.2798 16.7825 44.9457 16.1165C45.685 15.4206 46.0547 14.6041 46.0547 13.667C45.3588 13.1125 44.3885 12.8352 43.1436 12.8352C42.237 12.8352 41.481 13.0538 40.8757 13.4909C40.2644 13.9345 39.9608 14.4738 39.9608 15.1211Z" fill="#5F6368"/>
<path d="M60.44 6.87305L52.9876 24.0001H50.6836L53.4492 18.0073L48.5488 6.87305H50.9748L54.5166 15.4123H54.5651L58.0099 6.87305H60.44Z" fill="#5F6368"/>
<path d="M19.5649 10.2082C19.5658 9.52801 19.5083 8.84904 19.393 8.17871H9.98047V12.0228H15.3716C15.2612 12.6367 15.0277 13.222 14.6852 13.7432C14.3426 14.2645 13.898 14.711 13.3781 15.0559V17.5511H16.5956C18.4795 15.8141 19.5649 13.2454 19.5649 10.2082Z" fill="#4285F4"/>
<path d="M9.98019 19.9623C12.6737 19.9623 14.9416 19.0779 16.5953 17.553L13.3779 15.0578C12.4824 15.665 11.329 16.0115 9.98019 16.0115C7.37683 16.0115 5.16716 14.2565 4.377 11.8916H1.0625V14.4631C1.89323 16.1161 3.16706 17.5058 4.74178 18.4769C6.3165 19.4479 8.13013 19.9622 9.98019 19.9623Z" fill="#34A853"/>
<path d="M4.37729 11.8915C3.95957 10.6522 3.95957 9.31023 4.37729 8.07099V5.49951H1.06279C0.363954 6.89012 0 8.4249 0 9.98123C0 11.5376 0.363954 13.0723 1.06279 14.4629L4.37729 11.8915Z" fill="#FBBC04"/>
<path d="M9.98019 3.95095C11.4036 3.9277 12.7789 4.46549 13.809 5.4481L16.6577 2.59937C14.8513 0.902715 12.4583 -0.0287769 9.98019 0.000166562C8.13013 0.00025088 6.3165 0.514538 4.74178 1.48561C3.16706 2.45668 1.89323 3.84632 1.0625 5.49939L4.377 8.07086C5.16716 5.70594 7.37683 3.95095 9.98019 3.95095Z" fill="#EA4335"/>
</g>
<defs>
<clipPath id="clip0_8021_19351">
<rect width="60.436" height="24" fill="white"/>
</clipPath>
</defs>
</svg>
