<svg width="106" height="106" viewBox="0 0 106 106" fill="none" xmlns="http://www.w3.org/2000/svg">
<g clip-path="url(#clip0_10205_26329)">
<path d="M105.7 84.2954C105.7 87.7444 104.685 91.0522 102.879 93.491C101.072 95.9299 98.622 97.3 96.0672 97.3L96.0672 71.2908C98.622 71.2908 101.072 72.661 102.879 75.0998C104.685 77.5386 105.7 80.8464 105.7 84.2954Z" fill="#219653"/>
<path d="M21.7049 0.299987C25.1539 0.299987 28.4617 1.31492 30.9005 3.12146C33.3394 4.928 34.7095 7.37818 34.7095 9.93301L8.7003 9.93301C8.7003 7.37818 10.0704 4.928 12.5092 3.12145C14.9481 1.31491 18.2558 0.299986 21.7049 0.299987Z" fill="#219653"/>
<path d="M105.7 86.3L105.7 54.2785L51.1549 0.299998L19.7002 0.299996L105.7 86.3Z" fill="#07C451"/>
<path d="M57.6909 18.0695L55.4964 15.8749L49.4445 21.9268L48.2313 20.7135L54.2831 14.6617L52.1079 12.4865L53.094 11.5004L58.677 17.0834L57.6909 18.0695ZM61.3839 27.1956C60.6942 27.8852 59.9692 28.3718 59.2087 28.6554C58.4514 28.9357 57.7102 28.9937 56.9852 28.8294C56.2665 28.665 55.6188 28.2944 55.042 27.7176C54.4716 27.1472 54.101 26.4995 53.9302 25.7744C53.7659 25.0494 53.8191 24.3066 54.0897 23.5461C54.3637 22.7888 54.8358 22.0718 55.506 21.3951L55.9024 20.9987C56.5888 20.3123 57.3155 19.8273 58.0824 19.5438C58.8526 19.2634 59.597 19.2054 60.3156 19.3697C61.0407 19.5341 61.69 19.9031 62.2636 20.4767C62.8372 21.0503 63.2062 21.6964 63.3705 22.415C63.5413 23.1336 63.4881 23.8732 63.211 24.6337C62.9371 25.391 62.4586 26.1144 61.7754 26.804L61.3839 27.1956ZM60.5283 25.6053C61.3081 24.8254 61.7577 24.0794 61.8769 23.3672C61.9994 22.6583 61.7899 22.0331 61.2485 21.4918C60.72 20.9633 60.0981 20.757 59.3827 20.873C58.6737 20.989 57.9374 21.4225 57.1737 22.1733L56.7676 22.5793C55.9942 23.3527 55.5463 24.1004 55.4239 24.8222C55.3046 25.5473 55.5125 26.1773 56.0474 26.7122C56.5888 27.2536 57.2107 27.463 57.9132 27.3406C58.619 27.2213 59.3682 26.7654 60.1609 25.9726L60.5283 25.6053ZM63.1047 30.3568L60.4896 32.9719L59.2667 31.7489L66.3046 24.711L68.997 27.4034C69.7833 28.1897 70.2022 29.0179 70.2538 29.888C70.3085 30.7613 69.9992 31.5346 69.3257 32.2081C68.6361 32.8978 67.8723 33.2071 67.0345 33.1362C66.1999 33.0686 65.3749 32.6271 64.5596 31.8118L63.1047 30.3568ZM64.0859 29.3756L65.5554 30.845C65.9904 31.2801 66.4238 31.5105 66.8556 31.5363C67.2907 31.5588 67.7016 31.3767 68.0883 30.99C68.4685 30.6098 68.6554 30.1909 68.649 29.7333C68.6457 29.2725 68.4443 28.8358 68.0447 28.4233L66.5415 26.92L64.0859 29.3756ZM71.9021 39.1542L69.287 41.7693L68.0641 40.5463L75.102 33.5084L77.7944 36.2008C78.5807 36.9871 78.9996 37.8153 79.0512 38.6854C79.106 39.5587 78.7966 40.3321 78.1231 41.0056C77.4335 41.6952 76.6697 42.0045 75.8319 41.9336C74.9973 41.866 74.1723 41.4245 73.357 40.6092L71.9021 39.1542ZM72.8833 38.173L74.3528 39.6424C74.7878 40.0775 75.2212 40.3079 75.6531 40.3337C76.0881 40.3562 76.499 40.1741 76.8857 39.7875C77.2659 39.4072 77.4528 38.9883 77.4464 38.5307C77.4431 38.0699 77.2417 37.6332 76.8422 37.2207L75.3389 35.7174L72.8833 38.173ZM75.6869 48.1692L74.4688 46.9511L81.5067 39.9131L82.7248 41.1312L75.6869 48.1692ZM84.8517 52.7515C84.0299 53.4315 83.1663 53.7408 82.2608 53.6796C81.3585 53.6152 80.5061 53.1817 79.7037 52.3793C79.143 51.8186 78.7805 51.1919 78.6161 50.499C78.4582 49.8062 78.5082 49.0988 78.766 48.377C79.0238 47.6552 79.4717 46.9656 80.1098 46.3082L80.7671 45.6508C81.431 44.9869 82.1335 44.5197 82.8747 44.249C83.6158 43.9783 84.3425 43.9251 85.0547 44.0895C85.7701 44.257 86.4162 44.6292 86.993 45.2061C87.7696 45.9827 88.1837 46.8189 88.2353 47.7148C88.2868 48.6106 87.9662 49.4823 87.2734 50.3298L86.0553 49.1117C86.5032 48.5478 86.7191 48.0354 86.703 47.5746C86.6933 47.1138 86.4597 46.6546 86.0021 46.197C85.4704 45.6653 84.8662 45.451 84.1894 45.5541C83.5192 45.6572 82.8054 46.081 82.0481 46.8254L81.4245 47.4489C80.664 48.2094 80.2193 48.9248 80.0904 49.5951C79.9647 50.2686 80.1645 50.868 80.6898 51.3933C81.17 51.8734 81.6388 52.1264 82.0964 52.1522C82.554 52.1779 83.0664 51.9717 83.6336 51.5334L84.8517 52.7515ZM88.7186 55.1201L87.0752 55.1684L84.8807 57.3629L83.6577 56.14L90.6956 49.1021L91.9186 50.325L88.6171 53.6264L90.1301 53.4669L94.6545 53.0609L96.1336 54.54L90.4008 55.0427L89.2455 61.7278L87.7954 60.2777L88.7186 55.1201Z" fill="white"/>
</g>
<defs>
<clipPath id="clip0_10205_26329">
<rect width="105" height="105" fill="white" transform="matrix(-1 -8.74228e-08 -8.74228e-08 1 105.7 0.300003)"/>
</clipPath>
</defs>
</svg>
